<?xml version="1.0" encoding="UTF-8"?>
<svg xmlns="http://www.w3.org/2000/svg" xmlns:xlink="http://www.w3.org/1999/xlink" width="100px" height="50px" viewBox="0 0 100 50" version="1.1">
<g id="surface1">
<path style=" stroke:none;fill-rule:nonzero;fill:rgb(0%,0%,0%);fill-opacity:1;" d="M 46.28125 12.300781 C 40.859375 13.011719 36.980469 14.898438 35.28125 17.660156 C 34.761719 18.488281 34.761719 20.710938 35.261719 21.550781 C 36.179688 23.101562 37.460938 24.128906 39.800781 25.230469 C 43.300781 26.878906 48.441406 27.570312 53.261719 27.039062 C 56.398438 26.699219 59.941406 25.578125 61.878906 24.308594 C 63.121094 23.511719 64.320312 22.21875 64.71875 21.300781 C 65.140625 20.289062 65.101562 18.71875 64.601562 17.769531 C 63.261719 15.140625 58.980469 13 53.71875 12.308594 C 51.640625 12.039062 48.320312 12.03125 46.28125 12.300781 Z M 52.519531 12.300781 C 59.140625 12.878906 64.359375 15.761719 64.761719 19.039062 C 64.859375 20.011719 64.761719 20.128906 63.761719 20.03125 C 63.441406 20 63.019531 20.039062 62.761719 20.121094 C 62.398438 20.238281 62.21875 20.25 61.941406 20.160156 C 61.578125 20.050781 61.359375 20.128906 60.78125 20.601562 C 60.519531 20.820312 60.339844 20.640625 59.820312 19.550781 C 59.238281 18.351562 58.921875 18.300781 58.179688 19.269531 C 57.71875 19.871094 57.578125 19.949219 57.078125 19.980469 C 56.761719 20 56.398438 20.058594 56.28125 20.109375 C 56.121094 20.179688 56 20.101562 55.921875 19.851562 C 55.738281 19.390625 55.460938 19.410156 55.199219 19.890625 L 55 20.289062 L 54.398438 20.121094 C 54.078125 20.03125 53.78125 19.859375 53.71875 19.761719 C 53.660156 19.648438 53.558594 19.589844 53.480469 19.621094 C 53.238281 19.75 53.621094 20.050781 54.320312 20.269531 L 55.019531 20.5 L 55.199219 20.238281 C 55.320312 20.101562 55.398438 19.941406 55.398438 19.890625 C 55.398438 19.648438 55.78125 19.839844 55.878906 20.148438 C 56.019531 20.488281 56.398438 20.648438 56.398438 20.359375 C 56.398438 20.269531 56.640625 20.199219 57.039062 20.179688 C 57.660156 20.148438 57.738281 20.101562 58.28125 19.421875 C 58.621094 19.03125 58.941406 18.699219 59.019531 18.699219 C 59.078125 18.699219 59.339844 19.078125 59.578125 19.539062 C 60.320312 21.039062 60.480469 21.140625 61.179688 20.539062 C 61.601562 20.199219 61.640625 20.191406 61.980469 20.339844 C 62.300781 20.488281 62.359375 20.488281 62.601562 20.351562 C 62.761719 20.25 63.199219 20.199219 63.820312 20.199219 C 64.980469 20.199219 65.019531 20.25 64.398438 21.410156 C 63 24.101562 59.398438 25.96875 54 26.820312 C 52.71875 27.019531 52.101562 27.050781 49.800781 27.039062 C 47.441406 27.03125 46.898438 27 45.5 26.769531 C 39.878906 25.839844 36.160156 23.621094 35.121094 20.570312 L 34.980469 20.199219 L 35.78125 20.199219 C 36.441406 20.199219 36.660156 20.148438 36.941406 19.941406 L 37.28125 19.671875 L 37.640625 20.089844 L 37.980469 20.5 L 38.679688 20.269531 C 39.441406 20.019531 39.480469 19.941406 39.71875 18.269531 C 39.78125 17.730469 39.878906 17.308594 39.921875 17.328125 C 39.980469 17.351562 40.140625 18.351562 40.300781 19.550781 C 40.460938 20.738281 40.621094 21.738281 40.679688 21.769531 C 40.78125 21.828125 40.921875 21.589844 41.179688 20.890625 C 41.320312 20.5 41.558594 20.238281 41.960938 20.019531 L 42.558594 19.699219 L 42.878906 20.109375 C 43.199219 20.5 43.238281 20.511719 43.578125 20.359375 C 43.78125 20.269531 44.101562 20.199219 44.320312 20.199219 C 44.519531 20.199219 44.800781 20.160156 44.921875 20.121094 C 45.199219 20.03125 46.421875 18.601562 46.21875 18.601562 C 46.140625 18.601562 45.800781 18.910156 45.5 19.300781 C 45.019531 19.910156 44.859375 20 44.441406 20 C 44.160156 20 43.78125 20.070312 43.578125 20.160156 C 43.261719 20.308594 43.21875 20.289062 42.980469 19.910156 C 42.699219 19.441406 42.480469 19.398438 42.160156 19.75 C 42.039062 19.878906 41.78125 20.019531 41.578125 20.050781 C 41.359375 20.089844 41.179688 20.25 41.101562 20.480469 C 40.878906 21.140625 40.601562 21.210938 40.601562 20.601562 C 40.601562 20.300781 40.5 19.238281 40.378906 18.25 C 40.058594 15.53125 39.921875 15.5 39.5 18.101562 C 39.339844 19.101562 39.199219 19.929688 39.160156 19.941406 C 39.121094 19.949219 38.859375 20.039062 38.558594 20.128906 L 38.019531 20.300781 L 37.78125 19.921875 C 37.460938 19.390625 37.300781 19.351562 37 19.691406 C 36.78125 19.96875 36.660156 20 35.878906 20 L 35 20 L 35 19.5 C 35 18.820312 35.519531 17.601562 36.140625 16.828125 C 38.699219 13.640625 45.679688 11.710938 52.519531 12.300781 Z M 52.519531 12.300781 "/>
<path style=" stroke:none;fill-rule:nonzero;fill:rgb(0%,0%,0%);fill-opacity:1;" d="M 52.699219 17.429688 C 52.621094 18.109375 52.601562 18.75 52.660156 18.859375 C 52.699219 18.960938 52.78125 18.710938 52.800781 18.300781 C 52.839844 17.300781 53.160156 16.910156 53.199219 17.800781 C 53.21875 18.160156 53.320312 18.558594 53.421875 18.699219 C 53.539062 18.878906 53.558594 18.820312 53.5 18.449219 C 53.460938 18.171875 53.359375 17.558594 53.300781 17.070312 C 53.21875 16.589844 53.101562 16.199219 53 16.199219 C 52.921875 16.199219 52.78125 16.75 52.699219 17.429688 Z M 52.699219 17.429688 "/>
<path style=" stroke:none;fill-rule:nonzero;fill:rgb(0%,0%,0%);fill-opacity:1;" d="M 46.699219 19 C 46.78125 19.191406 46.921875 19.390625 47 19.441406 C 47.101562 19.488281 47.101562 19.359375 47 19.148438 C 46.78125 18.679688 46.5 18.539062 46.699219 19 Z M 46.699219 19 "/>
<path style=" stroke:none;fill-rule:nonzero;fill:rgb(0%,0%,0%);fill-opacity:1;" d="M 53.441406 19.300781 C 53.441406 19.441406 53.480469 19.488281 53.539062 19.421875 C 53.578125 19.359375 53.578125 19.238281 53.539062 19.171875 C 53.480469 19.109375 53.441406 19.160156 53.441406 19.300781 Z M 53.441406 19.300781 "/>
<path style=" stroke:none;fill-rule:nonzero;fill:rgb(0%,0%,0%);fill-opacity:1;" d="M 52.398438 19.949219 C 52.378906 20.28125 52.300781 20.679688 52.21875 20.851562 C 52.078125 21.140625 52.078125 21.128906 51.960938 20.699219 C 51.878906 20.441406 51.660156 20.191406 51.441406 20.101562 C 51.238281 20.011719 50.960938 19.839844 50.820312 19.71875 C 50.480469 19.398438 50.238281 19.449219 49.980469 19.898438 C 49.78125 20.210938 49.679688 20.28125 49.480469 20.191406 C 49.101562 20.039062 48.640625 20.140625 48.359375 20.449219 C 48.039062 20.808594 47.839844 20.761719 47.578125 20.25 C 47.460938 20 47.261719 19.769531 47.140625 19.730469 C 47.019531 19.691406 46.980469 19.730469 47.058594 19.828125 C 47.121094 19.921875 47.28125 20.171875 47.398438 20.390625 C 47.519531 20.609375 47.699219 20.820312 47.78125 20.851562 C 47.960938 20.898438 48.699219 20.511719 48.859375 20.269531 C 48.921875 20.191406 49.078125 20.210938 49.359375 20.339844 C 49.78125 20.519531 49.800781 20.519531 50 20.238281 C 50.460938 19.621094 50.421875 19.640625 50.640625 19.871094 C 50.761719 20 51.019531 20.121094 51.21875 20.148438 C 51.480469 20.191406 51.640625 20.398438 51.820312 20.929688 C 51.941406 21.328125 52.121094 21.691406 52.21875 21.738281 C 52.398438 21.839844 52.660156 20.289062 52.558594 19.75 C 52.480469 19.410156 52.460938 19.449219 52.398438 19.949219 Z M 52.398438 19.949219 "/>
<path style=" stroke:none;fill-rule:nonzero;fill:rgb(0%,0%,0%);fill-opacity:1;" d="M 3.679688 30.050781 C 3.5 30.269531 3.699219 30.328125 4.160156 30.210938 C 4.398438 30.148438 4.898438 30.101562 5.300781 30.101562 L 6.019531 30.101562 L 5.960938 31.898438 C 5.898438 33.640625 5.921875 33.699219 6.300781 33.699219 C 6.679688 33.699219 6.699219 33.640625 6.640625 31.890625 L 6.578125 30.070312 L 7.441406 30.128906 C 7.921875 30.148438 8.460938 30.210938 8.679688 30.25 C 8.960938 30.308594 9.019531 30.289062 8.960938 30.140625 C 8.898438 29.96875 8.660156 29.949219 6.339844 29.921875 C 4.179688 29.898438 3.78125 29.921875 3.679688 30.050781 Z M 3.679688 30.050781 "/>
<path style=" stroke:none;fill-rule:nonzero;fill:rgb(0%,0%,0%);fill-opacity:1;" d="M 10.398438 31.789062 C 10.398438 33.628906 10.421875 33.699219 10.800781 33.699219 C 11.160156 33.699219 11.199219 33.628906 11.199219 32.949219 L 11.199219 32.199219 L 13 32.199219 L 13.839844 32.949219 C 14.480469 33.511719 14.800781 33.691406 15.140625 33.699219 C 15.519531 33.699219 15.5 33.648438 14.679688 33.039062 C 14.199219 32.679688 13.800781 32.351562 13.800781 32.300781 C 13.800781 32.25 14.058594 32.191406 14.398438 32.148438 C 15.578125 32.019531 16.238281 31.28125 15.71875 30.671875 C 15.300781 30.160156 14.460938 29.980469 12.261719 29.921875 L 10.398438 29.871094 Z M 14.621094 30.390625 C 15.078125 30.628906 15.199219 30.769531 15.199219 31.121094 C 15.179688 31.851562 14.5 32.101562 12.519531 32.101562 L 11.199219 32.101562 L 11.199219 30.101562 L 12.621094 30.101562 C 13.921875 30.101562 14.078125 30.121094 14.621094 30.390625 Z M 14.621094 30.390625 "/>
<path style=" stroke:none;fill-rule:nonzero;fill:rgb(0%,0%,0%);fill-opacity:1;" d="M 17.300781 31.800781 C 17.300781 33.628906 17.320312 33.699219 17.699219 33.699219 C 18.078125 33.699219 18.101562 33.640625 18.039062 31.800781 C 17.980469 30.089844 17.941406 29.898438 17.640625 29.898438 C 17.339844 29.898438 17.300781 30.070312 17.300781 31.800781 Z M 17.300781 31.800781 "/>
<path style=" stroke:none;fill-rule:nonzero;fill:rgb(0%,0%,0%);fill-opacity:1;" d="M 19.601562 31.800781 C 19.601562 32.839844 19.660156 33.699219 19.761719 33.699219 C 19.839844 33.699219 19.878906 32.898438 19.839844 31.929688 C 19.800781 30.839844 19.859375 30.191406 19.960938 30.25 C 20.058594 30.308594 21.160156 31.101562 22.378906 32.019531 C 23.601562 32.949219 24.640625 33.699219 24.699219 33.699219 C 24.761719 33.699219 24.78125 32.828125 24.761719 31.769531 L 24.71875 29.851562 L 24.660156 31.550781 L 24.578125 33.238281 L 22.398438 31.570312 C 21.140625 30.601562 20.078125 29.898438 19.898438 29.898438 C 19.640625 29.898438 19.601562 30.148438 19.601562 31.800781 Z M 19.601562 31.800781 "/>
<path style=" stroke:none;fill-rule:nonzero;fill:rgb(0%,0%,0%);fill-opacity:1;" d="M 26.359375 31.800781 C 26.300781 33.640625 26.320312 33.699219 26.699219 33.699219 C 27.078125 33.699219 27.101562 33.628906 27.101562 31.800781 C 27.101562 30.070312 27.058594 29.898438 26.761719 29.898438 C 26.460938 29.898438 26.421875 30.089844 26.359375 31.800781 Z M 26.359375 31.800781 "/>
<path style=" stroke:none;fill-rule:nonzero;fill:rgb(0%,0%,0%);fill-opacity:1;" d="M 28.679688 30.050781 C 28.5 30.269531 28.699219 30.328125 29.160156 30.210938 C 29.398438 30.148438 29.898438 30.101562 30.300781 30.101562 L 31.019531 30.101562 L 30.960938 31.898438 C 30.898438 33.640625 30.921875 33.699219 31.300781 33.699219 C 31.679688 33.699219 31.699219 33.640625 31.640625 31.890625 L 31.578125 30.070312 L 32.441406 30.128906 C 32.921875 30.148438 33.460938 30.210938 33.679688 30.25 C 33.960938 30.308594 34.019531 30.289062 33.960938 30.140625 C 33.898438 29.96875 33.660156 29.949219 31.339844 29.921875 C 29.179688 29.898438 28.78125 29.921875 28.679688 30.050781 Z M 28.679688 30.050781 "/>
<path style=" stroke:none;fill-rule:nonzero;fill:rgb(0%,0%,0%);fill-opacity:1;" d="M 36.71875 30.960938 L 38.019531 32.019531 L 37.960938 32.859375 C 37.898438 33.640625 37.921875 33.699219 38.300781 33.699219 C 38.679688 33.699219 38.699219 33.628906 38.699219 32.761719 C 38.699219 32.238281 38.640625 31.839844 38.578125 31.859375 C 38.519531 31.871094 37.941406 31.441406 37.300781 30.898438 C 36.5 30.210938 36.019531 29.898438 35.78125 29.898438 C 35.480469 29.898438 35.660156 30.101562 36.71875 30.960938 Z M 36.71875 30.960938 "/>
<path style=" stroke:none;fill-rule:nonzero;fill:rgb(0%,0%,0%);fill-opacity:1;" d="M 40.71875 30.070312 C 40.601562 30.210938 40.621094 30.21875 40.820312 30.128906 C 40.960938 30.058594 41.019531 29.980469 40.960938 29.949219 C 40.898438 29.921875 40.78125 29.96875 40.71875 30.070312 Z M 40.71875 30.070312 "/>
<path style=" stroke:none;fill-rule:nonzero;fill:rgb(0%,0%,0%);fill-opacity:1;" d="M 46.199219 31.800781 C 46.199219 33.628906 46.21875 33.699219 46.601562 33.699219 C 46.980469 33.699219 47 33.628906 47 31.800781 C 47 29.96875 46.980469 29.898438 46.601562 29.898438 C 46.21875 29.898438 46.199219 29.96875 46.199219 31.800781 Z M 46.199219 31.800781 "/>
<path style=" stroke:none;fill-rule:nonzero;fill:rgb(0%,0%,0%);fill-opacity:1;" d="M 50.960938 31.800781 C 50.898438 33.640625 50.921875 33.699219 51.300781 33.699219 C 51.679688 33.699219 51.699219 33.628906 51.699219 31.800781 C 51.699219 30.070312 51.660156 29.898438 51.359375 29.898438 C 51.058594 29.898438 51.019531 30.089844 50.960938 31.800781 Z M 50.960938 31.800781 "/>
<path style=" stroke:none;fill-rule:nonzero;fill:rgb(0%,0%,0%);fill-opacity:1;" d="M 63.5 29.960938 C 63.378906 29.96875 63.058594 30.011719 62.738281 30.039062 C 61.660156 30.160156 61.101562 30.699219 61.519531 31.25 C 61.679688 31.441406 62.679688 31.699219 64.140625 31.941406 C 65.859375 32.21875 66.28125 32.769531 65.21875 33.308594 C 64.238281 33.789062 62.839844 33.699219 61.761719 33.058594 C 61.300781 32.789062 61.21875 32.769531 61.078125 32.929688 C 60.660156 33.488281 63.539062 33.921875 65.28125 33.558594 C 66.121094 33.378906 66.601562 33.050781 66.601562 32.621094 C 66.601562 32.148438 65.898438 31.851562 64.21875 31.601562 C 62.621094 31.359375 62 31.128906 62 30.75 C 62 30.109375 63.980469 29.851562 65.160156 30.351562 C 65.5 30.488281 65.820312 30.601562 65.878906 30.601562 C 66.078125 30.601562 66.019531 30.21875 65.800781 30.148438 C 65.558594 30.078125 63.761719 29.929688 63.5 29.960938 Z M 63.5 29.960938 "/>
<path style=" stroke:none;fill-rule:nonzero;fill:rgb(0%,0%,0%);fill-opacity:1;" d="M 68 31.789062 C 68 33.570312 68.019531 33.699219 68.359375 33.699219 C 68.679688 33.699219 68.71875 33.609375 68.71875 32.96875 L 68.699219 32.25 L 70.398438 32.199219 C 72.839844 32.128906 73.398438 31.921875 73.398438 31.078125 C 73.378906 30.269531 72.519531 29.988281 69.859375 29.921875 L 68 29.871094 Z M 72.320312 30.429688 C 73.019531 30.839844 72.980469 31.429688 72.21875 31.808594 C 71.679688 32.078125 71.519531 32.101562 70.121094 32.101562 L 68.601562 32.101562 L 68.601562 31.261719 C 68.601562 30.050781 68.578125 30.070312 70.359375 30.121094 C 71.679688 30.148438 71.898438 30.179688 72.320312 30.429688 Z M 72.320312 30.429688 "/>
<path style=" stroke:none;fill-rule:nonzero;fill:rgb(0%,0%,0%);fill-opacity:1;" d="M 74.800781 31.800781 C 74.800781 33.628906 74.820312 33.699219 75.199219 33.699219 C 75.578125 33.699219 75.601562 33.628906 75.601562 31.800781 C 75.601562 29.96875 75.578125 29.898438 75.199219 29.898438 C 74.820312 29.898438 74.800781 29.96875 74.800781 31.800781 Z M 74.800781 31.800781 "/>
<path style=" stroke:none;fill-rule:nonzero;fill:rgb(0%,0%,0%);fill-opacity:1;" d="M 77.121094 30.058594 C 76.898438 30.351562 77 30.390625 77.558594 30.238281 C 77.859375 30.171875 78.398438 30.101562 78.761719 30.101562 L 79.398438 30.101562 L 79.398438 31.898438 C 79.398438 33.628906 79.421875 33.699219 79.800781 33.699219 C 80.179688 33.699219 80.199219 33.628906 80.199219 31.898438 L 80.199219 30.101562 L 80.859375 30.101562 C 81.199219 30.101562 81.738281 30.171875 82.058594 30.238281 C 82.660156 30.398438 82.699219 30.378906 82.398438 30.089844 C 82.199219 29.921875 81.960938 29.898438 79.71875 29.898438 C 77.640625 29.898438 77.21875 29.929688 77.121094 30.058594 Z M 77.121094 30.058594 "/>
<path style=" stroke:none;fill-rule:nonzero;fill:rgb(0%,0%,0%);fill-opacity:1;" d="M 91.5 31.800781 L 91.5 33.699219 L 93.820312 33.699219 C 95.761719 33.699219 96.179688 33.671875 96.28125 33.539062 C 96.339844 33.449219 96.398438 33.371094 96.398438 33.351562 C 96.398438 33.339844 96.058594 33.378906 95.660156 33.460938 C 95.238281 33.53125 94.300781 33.589844 93.558594 33.601562 L 92.199219 33.601562 L 92.199219 31.75 C 92.199219 30.050781 92.179688 29.898438 91.859375 29.898438 C 91.519531 29.898438 91.5 30.058594 91.5 31.800781 Z M 91.5 31.800781 "/>
<path style=" stroke:none;fill-rule:nonzero;fill:rgb(0%,0%,0%);fill-opacity:1;" d="M 54.878906 30.191406 C 52.519531 30.910156 52.539062 32.800781 54.921875 33.46875 C 55.921875 33.761719 56.71875 33.761719 57.800781 33.46875 C 60.121094 32.859375 60.238281 30.980469 58.019531 30.230469 C 57.160156 29.941406 55.761719 29.921875 54.878906 30.191406 Z M 57.699219 30.320312 C 58.898438 30.789062 59.339844 31.871094 58.621094 32.648438 C 57.859375 33.46875 56.640625 33.761719 55.398438 33.421875 C 52.820312 32.710938 53.601562 30.101562 56.398438 30.101562 C 56.859375 30.101562 57.359375 30.179688 57.699219 30.320312 Z M 57.699219 30.320312 "/>
<path style=" stroke:none;fill-rule:nonzero;fill:rgb(0%,0%,0%);fill-opacity:1;" d="M 86.738281 30.191406 C 86.679688 30.308594 86.980469 30.789062 87.421875 31.320312 C 87.839844 31.828125 88.199219 32.308594 88.199219 32.371094 C 88.199219 32.460938 87.761719 32.5 86.679688 32.5 C 85.21875 32.5 85.179688 32.488281 85.28125 32.269531 C 85.339844 32.148438 85.261719 32.199219 85.078125 32.390625 C 84.921875 32.570312 84.820312 32.75 84.878906 32.78125 C 84.960938 32.808594 85 32.78125 85 32.71875 C 85 32.640625 85.539062 32.601562 86.699219 32.601562 L 88.398438 32.601562 L 88.71875 32.96875 C 88.878906 33.179688 89.039062 33.429688 89.058594 33.519531 C 89.078125 33.640625 89.261719 33.699219 89.539062 33.699219 C 89.921875 33.699219 89.980469 33.671875 89.820312 33.519531 C 89.71875 33.429688 89.078125 32.628906 88.398438 31.75 C 87.71875 30.871094 87.101562 30.109375 87 30.070312 C 86.921875 30.019531 86.800781 30.078125 86.738281 30.191406 Z M 86.738281 30.191406 "/>
<path style=" stroke:none;fill-rule:nonzero;fill:rgb(0%,0%,0%);fill-opacity:1;" d="M 85.519531 31.75 C 85.339844 32.011719 85.378906 32.070312 85.621094 31.871094 C 85.738281 31.769531 85.800781 31.660156 85.738281 31.640625 C 85.699219 31.609375 85.601562 31.660156 85.519531 31.75 Z M 85.519531 31.75 "/>
<path style=" stroke:none;fill-rule:nonzero;fill:rgb(0%,0%,0%);fill-opacity:1;" d="M 84.121094 33.550781 C 84.058594 33.628906 84.101562 33.699219 84.199219 33.699219 C 84.320312 33.699219 84.398438 33.628906 84.398438 33.550781 C 84.398438 33.46875 84.359375 33.398438 84.320312 33.398438 C 84.28125 33.398438 84.199219 33.46875 84.121094 33.550781 Z M 84.121094 33.550781 "/>
<path style=" stroke:none;fill-rule:nonzero;fill:rgb(0%,0%,0%);fill-opacity:1;" d="M 43.398438 36.699219 L 43.398438 37.398438 L 44.058594 37.390625 C 44.660156 37.371094 44.660156 37.371094 44.160156 37.328125 C 43.699219 37.289062 43.601562 37.238281 43.601562 37 C 43.601562 36.761719 43.699219 36.710938 44.160156 36.671875 L 44.699219 36.628906 L 44.160156 36.609375 C 43.699219 36.601562 43.601562 36.550781 43.601562 36.359375 C 43.601562 36.171875 43.71875 36.101562 44.160156 36.070312 C 44.660156 36.03125 44.660156 36.03125 44.058594 36.011719 L 43.398438 36 Z M 43.398438 36.699219 "/>
<path style=" stroke:none;fill-rule:nonzero;fill:rgb(0%,0%,0%);fill-opacity:1;" d="M 49.578125 36.179688 C 48.578125 36.589844 49.261719 37.410156 50.578125 37.390625 L 51.300781 37.371094 L 50.5 37.308594 C 49.941406 37.269531 49.640625 37.179688 49.480469 37.011719 C 49.121094 36.648438 49.480469 36.21875 50.261719 36.109375 C 50.738281 36.039062 50.78125 36.019531 50.480469 36.011719 C 50.238281 36 49.839844 36.078125 49.578125 36.179688 Z M 49.578125 36.179688 "/>
<path style=" stroke:none;fill-rule:nonzero;fill:rgb(0%,0%,0%);fill-opacity:1;" d="M 57.140625 36.070312 C 57.058594 36.101562 57.019531 36.429688 57.019531 36.789062 C 57.039062 37.148438 57.101562 37.328125 57.140625 37.171875 C 57.261719 36.820312 57.839844 36.808594 58.28125 37.148438 C 58.460938 37.289062 58.71875 37.398438 58.839844 37.398438 C 58.980469 37.398438 58.820312 37.269531 58.519531 37.109375 C 58.179688 36.929688 58.039062 36.800781 58.179688 36.761719 C 58.539062 36.640625 58.421875 36.210938 58.019531 36.101562 C 57.558594 35.980469 57.320312 35.96875 57.140625 36.070312 Z M 57.960938 36.191406 C 58.398438 36.320312 58.179688 36.75 57.660156 36.78125 C 57.261719 36.808594 57.199219 36.769531 57.199219 36.460938 C 57.199219 36.101562 57.421875 36.019531 57.960938 36.191406 Z M 57.960938 36.191406 "/>
<path style=" stroke:none;fill-rule:nonzero;fill:rgb(0%,0%,0%);fill-opacity:1;" d="M 60.738281 36.070312 C 60.660156 36.101562 60.601562 36.421875 60.601562 36.769531 L 60.601562 37.398438 L 61.359375 37.378906 C 62.078125 37.371094 62.078125 37.371094 61.460938 37.328125 C 60.878906 37.289062 60.800781 37.25 60.800781 37 C 60.800781 36.761719 60.898438 36.710938 61.359375 36.671875 L 61.898438 36.628906 L 61.339844 36.609375 C 60.878906 36.601562 60.78125 36.558594 60.839844 36.378906 C 60.878906 36.238281 61.101562 36.128906 61.398438 36.089844 L 61.898438 36.019531 L 61.378906 36.011719 C 61.101562 36 60.800781 36.03125 60.738281 36.070312 Z M 60.738281 36.070312 "/>
<path style=" stroke:none;fill-rule:nonzero;fill:rgb(0%,0%,0%);fill-opacity:1;" d="M 38.21875 36.671875 C 38.621094 37.269531 38.980469 37.550781 39.019531 37.289062 C 39.019531 37.21875 39.199219 36.96875 39.378906 36.75 L 39.738281 36.351562 L 40.078125 36.699219 C 40.398438 37.058594 40.320312 36.78125 39.960938 36.300781 C 39.761719 36.058594 39.738281 36.070312 39.359375 36.570312 C 39.121094 36.859375 38.878906 37.101562 38.800781 37.101562 C 38.71875 37.101562 38.539062 36.898438 38.398438 36.648438 C 38.261719 36.398438 38.078125 36.171875 37.980469 36.140625 C 37.898438 36.121094 38 36.351562 38.21875 36.671875 Z M 38.21875 36.671875 "/>
<path style=" stroke:none;fill-rule:nonzero;fill:rgb(0%,0%,0%);fill-opacity:1;" d="M 41.339844 36.171875 C 41.300781 36.21875 41.140625 36.429688 41 36.648438 C 40.859375 36.871094 40.640625 37.078125 40.519531 37.121094 C 40.378906 37.171875 40.359375 37.21875 40.519531 37.300781 C 40.660156 37.371094 40.839844 37.199219 41.140625 36.75 C 41.519531 36.171875 41.601562 35.949219 41.339844 36.171875 Z M 41.339844 36.171875 "/>
<path style=" stroke:none;fill-rule:nonzero;fill:rgb(0%,0%,0%);fill-opacity:1;" d="M 53.378906 36.75 C 53.078125 37.109375 52.921875 37.398438 53.019531 37.398438 C 53.121094 37.398438 53.199219 37.359375 53.199219 37.308594 C 53.199219 37.261719 53.378906 37 53.621094 36.730469 C 54.039062 36.261719 54.039062 36.261719 54.238281 36.5 C 54.800781 37.171875 55.039062 37.410156 55.121094 37.371094 C 55.238281 37.308594 54.179688 36.101562 54.019531 36.101562 C 53.960938 36.101562 53.660156 36.390625 53.378906 36.75 Z M 53.378906 36.75 "/>
</g>
</svg>
