<?xml version="1.0" encoding="UTF-8"?>
<svg xmlns="http://www.w3.org/2000/svg" xmlns:xlink="http://www.w3.org/1999/xlink" width="40px" height="40px" viewBox="0 0 40 40" version="1.1">
<g id="surface1">
<path style=" stroke:none;fill-rule:nonzero;fill:rgb(0%,0%,0%);fill-opacity:1;" d="M 18.511719 9.839844 C 16.34375 10.40625 14.792969 11.921875 14.113281 14.128906 C 13.902344 14.792969 13.902344 16.566406 14.105469 17.238281 C 14.472656 18.480469 14.984375 19.304688 15.921875 20.183594 C 17.320312 21.503906 19.375 22.054688 21.304688 21.632812 C 22.558594 21.359375 23.976562 20.464844 24.753906 19.449219 C 25.246094 18.808594 25.726562 17.777344 25.886719 17.039062 C 26.054688 16.230469 26.039062 14.976562 25.839844 14.214844 C 25.304688 12.113281 23.59375 10.398438 21.488281 9.847656 C 20.65625 9.632812 19.328125 9.625 18.511719 9.839844 Z M 21.007812 9.839844 C 23.65625 10.304688 25.742188 12.609375 25.902344 15.230469 C 25.945312 16.007812 25.902344 16.105469 25.503906 16.023438 C 25.375 16 25.207031 16.03125 25.105469 16.097656 C 24.960938 16.191406 24.886719 16.199219 24.777344 16.128906 C 24.632812 16.039062 24.542969 16.105469 24.3125 16.480469 C 24.207031 16.65625 24.136719 16.511719 23.929688 15.640625 C 23.695312 14.679688 23.566406 14.640625 23.273438 15.414062 C 23.089844 15.894531 23.03125 15.960938 22.832031 15.984375 C 22.703125 16 22.558594 16.046875 22.511719 16.089844 C 22.449219 16.144531 22.398438 16.078125 22.367188 15.878906 C 22.296875 15.511719 22.183594 15.527344 22.078125 15.910156 L 22 16.230469 L 21.761719 16.097656 C 21.632812 16.023438 21.511719 15.886719 21.488281 15.808594 C 21.464844 15.71875 21.425781 15.671875 21.390625 15.695312 C 21.296875 15.800781 21.449219 16.039062 21.726562 16.214844 L 22.007812 16.398438 L 22.078125 16.191406 C 22.128906 16.078125 22.160156 15.953125 22.160156 15.910156 C 22.160156 15.71875 22.3125 15.871094 22.351562 16.121094 C 22.40625 16.390625 22.558594 16.519531 22.558594 16.289062 C 22.558594 16.214844 22.65625 16.160156 22.816406 16.144531 C 23.0625 16.121094 23.097656 16.078125 23.3125 15.535156 C 23.449219 15.222656 23.574219 14.960938 23.609375 14.960938 C 23.632812 14.960938 23.734375 15.265625 23.832031 15.632812 C 24.128906 16.832031 24.191406 16.910156 24.472656 16.433594 C 24.640625 16.160156 24.65625 16.152344 24.792969 16.273438 C 24.921875 16.390625 24.945312 16.390625 25.039062 16.28125 C 25.105469 16.199219 25.28125 16.160156 25.527344 16.160156 C 25.992188 16.160156 26.007812 16.199219 25.761719 17.128906 C 25.199219 19.28125 23.761719 20.777344 21.601562 21.457031 C 21.089844 21.617188 20.839844 21.640625 19.921875 21.632812 C 18.976562 21.625 18.761719 21.601562 18.199219 21.414062 C 15.953125 20.671875 14.464844 18.894531 14.046875 16.457031 L 13.992188 16.160156 L 14.3125 16.160156 C 14.574219 16.160156 14.664062 16.121094 14.777344 15.953125 L 14.910156 15.734375 L 15.054688 16.070312 L 15.191406 16.398438 L 15.472656 16.214844 C 15.777344 16.015625 15.792969 15.953125 15.886719 14.617188 C 15.910156 14.183594 15.953125 13.847656 15.96875 13.863281 C 15.992188 13.878906 16.054688 14.679688 16.121094 15.640625 C 16.183594 16.59375 16.246094 17.390625 16.273438 17.414062 C 16.3125 17.464844 16.367188 17.273438 16.472656 16.710938 C 16.527344 16.398438 16.625 16.191406 16.785156 16.015625 L 17.023438 15.761719 L 17.152344 16.089844 C 17.28125 16.398438 17.296875 16.40625 17.433594 16.289062 C 17.511719 16.214844 17.640625 16.160156 17.726562 16.160156 C 17.808594 16.160156 17.921875 16.128906 17.96875 16.097656 C 18.078125 16.023438 18.566406 14.878906 18.488281 14.878906 C 18.457031 14.878906 18.320312 15.128906 18.199219 15.441406 C 18.007812 15.929688 17.945312 16 17.777344 16 C 17.664062 16 17.511719 16.054688 17.433594 16.128906 C 17.304688 16.246094 17.289062 16.230469 17.191406 15.929688 C 17.078125 15.550781 16.992188 15.519531 16.863281 15.800781 C 16.816406 15.902344 16.710938 16.015625 16.632812 16.039062 C 16.542969 16.070312 16.472656 16.199219 16.441406 16.382812 C 16.351562 16.910156 16.238281 16.96875 16.238281 16.480469 C 16.238281 16.238281 16.199219 15.390625 16.152344 14.601562 C 16.023438 12.425781 15.96875 12.398438 15.800781 14.480469 C 15.734375 15.28125 15.679688 15.945312 15.664062 15.953125 C 15.648438 15.960938 15.542969 16.03125 15.425781 16.105469 L 15.207031 16.238281 L 15.113281 15.9375 C 14.984375 15.511719 14.921875 15.480469 14.800781 15.753906 C 14.710938 15.976562 14.664062 16 14.351562 16 L 14 16 L 14 15.601562 C 14 15.054688 14.207031 14.078125 14.457031 13.464844 C 15.480469 10.910156 18.273438 9.367188 21.007812 9.839844 Z M 21.007812 9.839844 "/>
<path style=" stroke:none;fill-rule:nonzero;fill:rgb(0%,0%,0%);fill-opacity:1;" d="M 21.078125 13.945312 C 21.046875 14.488281 21.039062 15 21.0625 15.089844 C 21.078125 15.167969 21.113281 14.96875 21.121094 14.640625 C 21.136719 13.839844 21.265625 13.527344 21.28125 14.238281 C 21.289062 14.527344 21.328125 14.847656 21.367188 14.960938 C 21.414062 15.105469 21.425781 15.054688 21.398438 14.761719 C 21.382812 14.535156 21.34375 14.046875 21.320312 13.65625 C 21.289062 13.273438 21.238281 12.960938 21.199219 12.960938 C 21.167969 12.960938 21.113281 13.398438 21.078125 13.945312 Z M 21.078125 13.945312 "/>
<path style=" stroke:none;fill-rule:nonzero;fill:rgb(0%,0%,0%);fill-opacity:1;" d="M 18.679688 15.199219 C 18.710938 15.351562 18.769531 15.511719 18.800781 15.550781 C 18.839844 15.59375 18.839844 15.488281 18.800781 15.320312 C 18.710938 14.945312 18.601562 14.832031 18.679688 15.199219 Z M 18.679688 15.199219 "/>
<path style=" stroke:none;fill-rule:nonzero;fill:rgb(0%,0%,0%);fill-opacity:1;" d="M 21.375 15.441406 C 21.375 15.550781 21.390625 15.59375 21.414062 15.535156 C 21.433594 15.488281 21.433594 15.390625 21.414062 15.335938 C 21.390625 15.289062 21.375 15.328125 21.375 15.441406 Z M 21.375 15.441406 "/>
<path style=" stroke:none;fill-rule:nonzero;fill:rgb(0%,0%,0%);fill-opacity:1;" d="M 20.960938 15.960938 C 20.953125 16.222656 20.921875 16.542969 20.886719 16.679688 C 20.832031 16.910156 20.832031 16.902344 20.785156 16.558594 C 20.753906 16.351562 20.664062 16.152344 20.574219 16.078125 C 20.496094 16.007812 20.382812 15.871094 20.328125 15.777344 C 20.191406 15.519531 20.097656 15.558594 19.992188 15.921875 C 19.910156 16.167969 19.871094 16.222656 19.792969 16.152344 C 19.640625 16.03125 19.457031 16.113281 19.34375 16.359375 C 19.214844 16.648438 19.136719 16.609375 19.03125 16.199219 C 18.984375 16 18.902344 15.816406 18.855469 15.785156 C 18.808594 15.753906 18.792969 15.785156 18.824219 15.863281 C 18.847656 15.9375 18.910156 16.136719 18.960938 16.3125 C 19.007812 16.488281 19.078125 16.65625 19.113281 16.679688 C 19.183594 16.71875 19.480469 16.40625 19.542969 16.214844 C 19.566406 16.152344 19.632812 16.167969 19.742188 16.273438 C 19.910156 16.414062 19.921875 16.414062 20 16.191406 C 20.183594 15.695312 20.167969 15.710938 20.257812 15.894531 C 20.304688 16 20.40625 16.097656 20.488281 16.121094 C 20.59375 16.152344 20.65625 16.320312 20.726562 16.742188 C 20.777344 17.0625 20.847656 17.351562 20.886719 17.390625 C 20.960938 17.472656 21.0625 16.230469 21.023438 15.800781 C 20.992188 15.527344 20.984375 15.558594 20.960938 15.960938 Z M 20.960938 15.960938 "/>
<path style=" stroke:none;fill-rule:nonzero;fill:rgb(0%,0%,0%);fill-opacity:1;" d="M 1.472656 24.039062 C 1.398438 24.214844 1.480469 24.265625 1.664062 24.167969 C 1.761719 24.121094 1.960938 24.078125 2.121094 24.078125 L 2.40625 24.078125 L 2.382812 25.519531 C 2.359375 26.910156 2.367188 26.960938 2.519531 26.960938 C 2.671875 26.960938 2.679688 26.910156 2.65625 25.511719 L 2.632812 24.054688 L 2.976562 24.105469 C 3.167969 24.121094 3.382812 24.167969 3.472656 24.199219 C 3.585938 24.246094 3.609375 24.230469 3.585938 24.113281 C 3.558594 23.976562 3.464844 23.960938 2.535156 23.9375 C 1.671875 23.921875 1.511719 23.9375 1.472656 24.039062 Z M 1.472656 24.039062 "/>
<path style=" stroke:none;fill-rule:nonzero;fill:rgb(0%,0%,0%);fill-opacity:1;" d="M 4.160156 25.433594 C 4.160156 26.902344 4.167969 26.960938 4.320312 26.960938 C 4.464844 26.960938 4.480469 26.902344 4.480469 26.359375 L 4.480469 25.761719 L 5.199219 25.761719 L 5.535156 26.359375 C 5.792969 26.808594 5.921875 26.953125 6.054688 26.960938 C 6.207031 26.960938 6.199219 26.921875 5.871094 26.433594 C 5.679688 26.144531 5.519531 25.878906 5.519531 25.839844 C 5.519531 25.800781 5.625 25.753906 5.761719 25.71875 C 6.230469 25.617188 6.496094 25.023438 6.289062 24.535156 C 6.121094 24.128906 5.785156 23.984375 4.902344 23.9375 L 4.160156 23.894531 Z M 5.847656 24.3125 C 6.03125 24.503906 6.078125 24.617188 6.078125 24.894531 C 6.070312 25.480469 5.800781 25.679688 5.007812 25.679688 L 4.480469 25.679688 L 4.480469 24.078125 L 5.046875 24.078125 C 5.566406 24.078125 5.632812 24.097656 5.847656 24.3125 Z M 5.847656 24.3125 "/>
<path style=" stroke:none;fill-rule:nonzero;fill:rgb(0%,0%,0%);fill-opacity:1;" d="M 6.921875 25.441406 C 6.921875 26.902344 6.929688 26.960938 7.078125 26.960938 C 7.230469 26.960938 7.238281 26.910156 7.214844 25.441406 C 7.191406 24.070312 7.175781 23.921875 7.054688 23.921875 C 6.9375 23.921875 6.921875 24.054688 6.921875 25.441406 Z M 6.921875 25.441406 "/>
<path style=" stroke:none;fill-rule:nonzero;fill:rgb(0%,0%,0%);fill-opacity:1;" d="M 7.839844 25.441406 C 7.839844 26.273438 7.863281 26.960938 7.902344 26.960938 C 7.9375 26.960938 7.953125 26.320312 7.9375 25.542969 C 7.921875 24.671875 7.945312 24.152344 7.984375 24.199219 C 8.023438 24.246094 8.464844 24.878906 8.953125 25.617188 C 9.441406 26.359375 9.855469 26.960938 9.878906 26.960938 C 9.902344 26.960938 9.910156 26.265625 9.902344 25.414062 L 9.886719 23.878906 L 9.863281 25.238281 L 9.832031 26.59375 L 8.960938 25.257812 C 8.457031 24.480469 8.03125 23.921875 7.960938 23.921875 C 7.855469 23.921875 7.839844 24.121094 7.839844 25.441406 Z M 7.839844 25.441406 "/>
<path style=" stroke:none;fill-rule:nonzero;fill:rgb(0%,0%,0%);fill-opacity:1;" d="M 10.542969 25.441406 C 10.519531 26.910156 10.527344 26.960938 10.679688 26.960938 C 10.832031 26.960938 10.839844 26.902344 10.839844 25.441406 C 10.839844 24.054688 10.824219 23.921875 10.703125 23.921875 C 10.585938 23.921875 10.566406 24.070312 10.542969 25.441406 Z M 10.542969 25.441406 "/>
<path style=" stroke:none;fill-rule:nonzero;fill:rgb(0%,0%,0%);fill-opacity:1;" d="M 11.472656 24.039062 C 11.398438 24.214844 11.480469 24.265625 11.664062 24.167969 C 11.761719 24.121094 11.960938 24.078125 12.121094 24.078125 L 12.40625 24.078125 L 12.382812 25.519531 C 12.359375 26.910156 12.367188 26.960938 12.519531 26.960938 C 12.671875 26.960938 12.679688 26.910156 12.65625 25.511719 L 12.632812 24.054688 L 12.976562 24.105469 C 13.167969 24.121094 13.382812 24.167969 13.472656 24.199219 C 13.585938 24.246094 13.609375 24.230469 13.585938 24.113281 C 13.558594 23.976562 13.464844 23.960938 12.535156 23.9375 C 11.671875 23.921875 11.511719 23.9375 11.472656 24.039062 Z M 11.472656 24.039062 "/>
<path style=" stroke:none;fill-rule:nonzero;fill:rgb(0%,0%,0%);fill-opacity:1;" d="M 14.6875 24.769531 L 15.207031 25.617188 L 15.183594 26.289062 C 15.160156 26.910156 15.167969 26.960938 15.320312 26.960938 C 15.472656 26.960938 15.480469 26.902344 15.480469 26.207031 C 15.480469 25.792969 15.457031 25.472656 15.433594 25.488281 C 15.40625 25.496094 15.175781 25.152344 14.921875 24.71875 C 14.601562 24.167969 14.40625 23.921875 14.3125 23.921875 C 14.191406 23.921875 14.265625 24.078125 14.6875 24.769531 Z M 14.6875 24.769531 "/>
<path style=" stroke:none;fill-rule:nonzero;fill:rgb(0%,0%,0%);fill-opacity:1;" d="M 16.289062 24.054688 C 16.238281 24.167969 16.246094 24.175781 16.328125 24.105469 C 16.382812 24.046875 16.40625 23.984375 16.382812 23.960938 C 16.359375 23.9375 16.3125 23.976562 16.289062 24.054688 Z M 16.289062 24.054688 "/>
<path style=" stroke:none;fill-rule:nonzero;fill:rgb(0%,0%,0%);fill-opacity:1;" d="M 18.480469 25.441406 C 18.480469 26.902344 18.488281 26.960938 18.640625 26.960938 C 18.792969 26.960938 18.800781 26.902344 18.800781 25.441406 C 18.800781 23.976562 18.792969 23.921875 18.640625 23.921875 C 18.488281 23.921875 18.480469 23.976562 18.480469 25.441406 Z M 18.480469 25.441406 "/>
<path style=" stroke:none;fill-rule:nonzero;fill:rgb(0%,0%,0%);fill-opacity:1;" d="M 20.382812 25.441406 C 20.359375 26.910156 20.367188 26.960938 20.519531 26.960938 C 20.671875 26.960938 20.679688 26.902344 20.679688 25.441406 C 20.679688 24.054688 20.664062 23.921875 20.542969 23.921875 C 20.425781 23.921875 20.40625 24.070312 20.382812 25.441406 Z M 20.382812 25.441406 "/>
<path style=" stroke:none;fill-rule:nonzero;fill:rgb(0%,0%,0%);fill-opacity:1;" d="M 25.398438 23.96875 C 25.351562 23.976562 25.222656 24.007812 25.097656 24.03125 C 24.664062 24.128906 24.441406 24.558594 24.609375 25 C 24.671875 25.152344 25.070312 25.359375 25.65625 25.550781 C 26.34375 25.777344 26.511719 26.214844 26.089844 26.648438 C 25.695312 27.03125 25.136719 26.960938 24.703125 26.449219 C 24.519531 26.230469 24.488281 26.214844 24.433594 26.34375 C 24.265625 26.792969 25.414062 27.136719 26.113281 26.847656 C 26.449219 26.703125 26.640625 26.441406 26.640625 26.097656 C 26.640625 25.71875 26.359375 25.480469 25.6875 25.28125 C 25.046875 25.089844 24.800781 24.902344 24.800781 24.601562 C 24.800781 24.089844 25.59375 23.878906 26.0625 24.28125 C 26.199219 24.390625 26.328125 24.480469 26.351562 24.480469 C 26.433594 24.480469 26.40625 24.175781 26.320312 24.121094 C 26.222656 24.0625 25.503906 23.945312 25.398438 23.96875 Z M 25.398438 23.96875 "/>
<path style=" stroke:none;fill-rule:nonzero;fill:rgb(0%,0%,0%);fill-opacity:1;" d="M 27.199219 25.433594 C 27.199219 26.855469 27.207031 26.960938 27.34375 26.960938 C 27.472656 26.960938 27.488281 26.886719 27.488281 26.375 L 27.480469 25.800781 L 28.160156 25.761719 C 29.136719 25.703125 29.359375 25.535156 29.359375 24.863281 C 29.351562 24.214844 29.007812 23.992188 27.945312 23.9375 L 27.199219 23.894531 Z M 28.929688 24.34375 C 29.207031 24.671875 29.191406 25.144531 28.886719 25.449219 C 28.671875 25.664062 28.609375 25.679688 28.046875 25.679688 L 27.441406 25.679688 L 27.441406 25.007812 C 27.441406 24.039062 27.433594 24.054688 28.144531 24.097656 C 28.671875 24.121094 28.761719 24.144531 28.929688 24.34375 Z M 28.929688 24.34375 "/>
<path style=" stroke:none;fill-rule:nonzero;fill:rgb(0%,0%,0%);fill-opacity:1;" d="M 29.921875 25.441406 C 29.921875 26.902344 29.929688 26.960938 30.078125 26.960938 C 30.230469 26.960938 30.238281 26.902344 30.238281 25.441406 C 30.238281 23.976562 30.230469 23.921875 30.078125 23.921875 C 29.929688 23.921875 29.921875 23.976562 29.921875 25.441406 Z M 29.921875 25.441406 "/>
<path style=" stroke:none;fill-rule:nonzero;fill:rgb(0%,0%,0%);fill-opacity:1;" d="M 30.847656 24.046875 C 30.761719 24.28125 30.800781 24.3125 31.023438 24.191406 C 31.144531 24.136719 31.359375 24.078125 31.503906 24.078125 L 31.761719 24.078125 L 31.761719 25.519531 C 31.761719 26.902344 31.769531 26.960938 31.921875 26.960938 C 32.070312 26.960938 32.078125 26.902344 32.078125 25.519531 L 32.078125 24.078125 L 32.34375 24.078125 C 32.480469 24.078125 32.695312 24.136719 32.824219 24.191406 C 33.0625 24.320312 33.078125 24.304688 32.960938 24.070312 C 32.878906 23.9375 32.785156 23.921875 31.886719 23.921875 C 31.054688 23.921875 30.886719 23.945312 30.847656 24.046875 Z M 30.847656 24.046875 "/>
<path style=" stroke:none;fill-rule:nonzero;fill:rgb(0%,0%,0%);fill-opacity:1;" d="M 36.601562 25.441406 L 36.601562 26.960938 L 37.527344 26.960938 C 38.304688 26.960938 38.472656 26.9375 38.511719 26.832031 C 38.535156 26.761719 38.558594 26.695312 38.558594 26.679688 C 38.558594 26.671875 38.425781 26.703125 38.265625 26.769531 C 38.097656 26.824219 37.71875 26.871094 37.425781 26.878906 L 36.878906 26.878906 L 36.878906 25.398438 C 36.878906 24.039062 36.871094 23.921875 36.742188 23.921875 C 36.609375 23.921875 36.601562 24.046875 36.601562 25.441406 Z M 36.601562 25.441406 "/>
<path style=" stroke:none;fill-rule:nonzero;fill:rgb(0%,0%,0%);fill-opacity:1;" d="M 21.953125 24.152344 C 21.007812 24.726562 21.015625 26.238281 21.96875 26.777344 C 22.367188 27.007812 22.6875 27.007812 23.121094 26.777344 C 24.046875 26.289062 24.097656 24.785156 23.207031 24.183594 C 22.863281 23.953125 22.304688 23.9375 21.953125 24.152344 Z M 23.078125 24.257812 C 23.558594 24.632812 23.734375 25.496094 23.449219 26.121094 C 23.144531 26.777344 22.65625 27.007812 22.160156 26.734375 C 21.128906 26.167969 21.441406 24.078125 22.558594 24.078125 C 22.742188 24.078125 22.945312 24.144531 23.078125 24.257812 Z M 23.078125 24.257812 "/>
<path style=" stroke:none;fill-rule:nonzero;fill:rgb(0%,0%,0%);fill-opacity:1;" d="M 34.695312 24.152344 C 34.671875 24.246094 34.792969 24.632812 34.96875 25.054688 C 35.136719 25.464844 35.28125 25.847656 35.28125 25.894531 C 35.28125 25.96875 35.105469 26 34.671875 26 C 34.089844 26 34.070312 25.992188 34.113281 25.816406 C 34.136719 25.71875 34.105469 25.761719 34.03125 25.910156 C 33.96875 26.054688 33.929688 26.199219 33.953125 26.222656 C 33.984375 26.246094 34 26.222656 34 26.175781 C 34 26.113281 34.214844 26.078125 34.679688 26.078125 L 35.359375 26.078125 L 35.488281 26.375 C 35.550781 26.542969 35.617188 26.742188 35.625 26.816406 C 35.632812 26.910156 35.703125 26.960938 35.816406 26.960938 C 35.96875 26.960938 35.992188 26.9375 35.929688 26.816406 C 35.886719 26.742188 35.632812 26.105469 35.359375 25.398438 C 35.089844 24.695312 34.839844 24.089844 34.800781 24.054688 C 34.769531 24.015625 34.71875 24.0625 34.695312 24.152344 Z M 34.695312 24.152344 "/>
<path style=" stroke:none;fill-rule:nonzero;fill:rgb(0%,0%,0%);fill-opacity:1;" d="M 34.207031 25.398438 C 34.136719 25.609375 34.152344 25.65625 34.246094 25.496094 C 34.296875 25.414062 34.320312 25.328125 34.296875 25.3125 C 34.28125 25.289062 34.238281 25.328125 34.207031 25.398438 Z M 34.207031 25.398438 "/>
<path style=" stroke:none;fill-rule:nonzero;fill:rgb(0%,0%,0%);fill-opacity:1;" d="M 33.648438 26.839844 C 33.625 26.902344 33.640625 26.960938 33.679688 26.960938 C 33.726562 26.960938 33.761719 26.902344 33.761719 26.839844 C 33.761719 26.777344 33.742188 26.71875 33.726562 26.71875 C 33.710938 26.71875 33.679688 26.777344 33.648438 26.839844 Z M 33.648438 26.839844 "/>
<path style=" stroke:none;fill-rule:nonzero;fill:rgb(0%,0%,0%);fill-opacity:1;" d="M 17.359375 29.359375 L 17.359375 29.921875 L 17.625 29.910156 C 17.863281 29.894531 17.863281 29.894531 17.664062 29.863281 C 17.480469 29.832031 17.441406 29.792969 17.441406 29.601562 C 17.441406 29.40625 17.480469 29.367188 17.664062 29.335938 L 17.878906 29.304688 L 17.664062 29.289062 C 17.480469 29.28125 17.441406 29.238281 17.441406 29.089844 C 17.441406 28.9375 17.488281 28.878906 17.664062 28.855469 C 17.863281 28.824219 17.863281 28.824219 17.625 28.808594 L 17.359375 28.800781 Z M 17.359375 29.359375 "/>
<path style=" stroke:none;fill-rule:nonzero;fill:rgb(0%,0%,0%);fill-opacity:1;" d="M 19.832031 28.945312 C 19.433594 29.273438 19.703125 29.929688 20.230469 29.910156 L 20.519531 29.894531 L 20.199219 29.847656 C 19.976562 29.816406 19.855469 29.742188 19.792969 29.609375 C 19.648438 29.320312 19.792969 28.976562 20.105469 28.886719 C 20.296875 28.832031 20.3125 28.816406 20.191406 28.808594 C 20.097656 28.800781 19.9375 28.863281 19.832031 28.945312 Z M 19.832031 28.945312 "/>
<path style=" stroke:none;fill-rule:nonzero;fill:rgb(0%,0%,0%);fill-opacity:1;" d="M 22.855469 28.855469 C 22.824219 28.878906 22.808594 29.144531 22.808594 29.433594 C 22.816406 29.71875 22.839844 29.863281 22.855469 29.734375 C 22.902344 29.457031 23.136719 29.449219 23.3125 29.71875 C 23.382812 29.832031 23.488281 29.921875 23.535156 29.921875 C 23.59375 29.921875 23.527344 29.816406 23.40625 29.6875 C 23.273438 29.542969 23.214844 29.441406 23.273438 29.40625 C 23.414062 29.3125 23.367188 28.96875 23.207031 28.878906 C 23.023438 28.785156 22.929688 28.777344 22.855469 28.855469 Z M 23.183594 28.953125 C 23.359375 29.054688 23.273438 29.398438 23.0625 29.425781 C 22.902344 29.449219 22.878906 29.414062 22.878906 29.167969 C 22.878906 28.878906 22.96875 28.816406 23.183594 28.953125 Z M 23.183594 28.953125 "/>
<path style=" stroke:none;fill-rule:nonzero;fill:rgb(0%,0%,0%);fill-opacity:1;" d="M 24.296875 28.855469 C 24.265625 28.878906 24.238281 29.136719 24.238281 29.414062 L 24.238281 29.921875 L 24.542969 29.902344 C 24.832031 29.894531 24.832031 29.894531 24.585938 29.863281 C 24.351562 29.832031 24.320312 29.800781 24.320312 29.601562 C 24.320312 29.40625 24.359375 29.367188 24.542969 29.335938 L 24.761719 29.304688 L 24.535156 29.289062 C 24.351562 29.28125 24.3125 29.246094 24.335938 29.105469 C 24.351562 28.992188 24.441406 28.902344 24.558594 28.871094 L 24.761719 28.816406 L 24.550781 28.808594 C 24.441406 28.800781 24.320312 28.824219 24.296875 28.855469 Z M 24.296875 28.855469 "/>
<path style=" stroke:none;fill-rule:nonzero;fill:rgb(0%,0%,0%);fill-opacity:1;" d="M 15.289062 29.335938 C 15.449219 29.816406 15.59375 30.039062 15.609375 29.832031 C 15.609375 29.777344 15.679688 29.574219 15.753906 29.398438 L 15.894531 29.078125 L 16.03125 29.359375 C 16.160156 29.648438 16.128906 29.425781 15.984375 29.039062 C 15.902344 28.847656 15.894531 28.855469 15.742188 29.257812 C 15.648438 29.488281 15.550781 29.679688 15.519531 29.679688 C 15.488281 29.679688 15.414062 29.519531 15.359375 29.320312 C 15.304688 29.121094 15.230469 28.9375 15.191406 28.910156 C 15.160156 28.894531 15.199219 29.078125 15.289062 29.335938 Z M 15.289062 29.335938 "/>
<path style=" stroke:none;fill-rule:nonzero;fill:rgb(0%,0%,0%);fill-opacity:1;" d="M 16.535156 28.9375 C 16.519531 28.976562 16.457031 29.144531 16.398438 29.320312 C 16.34375 29.496094 16.257812 29.664062 16.207031 29.695312 C 16.152344 29.734375 16.144531 29.777344 16.207031 29.839844 C 16.265625 29.894531 16.335938 29.761719 16.457031 29.398438 C 16.609375 28.9375 16.640625 28.761719 16.535156 28.9375 Z M 16.535156 28.9375 "/>
<path style=" stroke:none;fill-rule:nonzero;fill:rgb(0%,0%,0%);fill-opacity:1;" d="M 21.351562 29.398438 C 21.230469 29.6875 21.167969 29.921875 21.207031 29.921875 C 21.246094 29.921875 21.28125 29.886719 21.28125 29.847656 C 21.28125 29.808594 21.351562 29.601562 21.449219 29.382812 C 21.617188 29.007812 21.617188 29.007812 21.695312 29.199219 C 21.921875 29.734375 22.015625 29.929688 22.046875 29.894531 C 22.097656 29.847656 21.671875 28.878906 21.609375 28.878906 C 21.585938 28.878906 21.464844 29.113281 21.351562 29.398438 Z M 21.351562 29.398438 "/>
</g>
</svg>
